<mxfile host="app.diagrams.net" modified="2021-12-21T03:57:55.360Z" agent="5.0 (Windows NT 10.0; Win64; x64) AppleWebKit/537.36 (KHTML, like Gecko) Chrome/96.0.4664.110 Safari/537.36" etag="Z5q-XG8FqRwmYKSS_2rZ" version="16.0.0" type="github">
  <diagram id="WvhQUVRHhDXXNewja3kh" name="Page-1">
    <mxGraphModel dx="868" dy="482" grid="1" gridSize="10" guides="1" tooltips="1" connect="1" arrows="1" fold="1" page="1" pageScale="1" pageWidth="850" pageHeight="1100" math="0" shadow="0">
      <root>
        <mxCell id="0" />
        <mxCell id="1" parent="0" />
        <mxCell id="noHD_NM3KPzWWushJRem-1" value="&lt;h2&gt;begin&lt;/h2&gt;" style="ellipse;whiteSpace=wrap;html=1;" parent="1" vertex="1">
          <mxGeometry x="360" y="90" width="120" height="80" as="geometry" />
        </mxCell>
        <mxCell id="noHD_NM3KPzWWushJRem-2" value="&lt;h2&gt;mÃ£ sv&lt;/h2&gt;" style="shape=parallelogram;perimeter=parallelogramPerimeter;whiteSpace=wrap;html=1;fixedSize=1;" parent="1" vertex="1">
          <mxGeometry x="360" y="230" width="130" height="60" as="geometry" />
        </mxCell>
        <mxCell id="noHD_NM3KPzWWushJRem-3" value="" style="endArrow=classic;html=1;rounded=0;exitX=0.5;exitY=1;exitDx=0;exitDy=0;entryX=0.5;entryY=0;entryDx=0;entryDy=0;" parent="1" source="noHD_NM3KPzWWushJRem-1" target="noHD_NM3KPzWWushJRem-2" edge="1">
          <mxGeometry width="50" height="50" relative="1" as="geometry">
            <mxPoint x="300" y="230" as="sourcePoint" />
            <mxPoint x="350" y="180" as="targetPoint" />
            <Array as="points" />
          </mxGeometry>
        </mxCell>
        <mxCell id="noHD_NM3KPzWWushJRem-4" value="&lt;h2&gt;i=0&lt;/h2&gt;" style="rounded=1;whiteSpace=wrap;html=1;" parent="1" vertex="1">
          <mxGeometry x="360" y="350" width="120" height="60" as="geometry" />
        </mxCell>
        <mxCell id="noHD_NM3KPzWWushJRem-5" value="" style="endArrow=classic;html=1;rounded=0;exitX=0.5;exitY=1;exitDx=0;exitDy=0;entryX=0.5;entryY=0;entryDx=0;entryDy=0;" parent="1" source="noHD_NM3KPzWWushJRem-2" target="noHD_NM3KPzWWushJRem-4" edge="1">
          <mxGeometry width="50" height="50" relative="1" as="geometry">
            <mxPoint x="390" y="350" as="sourcePoint" />
            <mxPoint x="440" y="300" as="targetPoint" />
          </mxGeometry>
        </mxCell>
        <mxCell id="noHD_NM3KPzWWushJRem-9" style="edgeStyle=orthogonalEdgeStyle;rounded=0;orthogonalLoop=1;jettySize=auto;html=1;exitX=0.5;exitY=1;exitDx=0;exitDy=0;" parent="1" source="noHD_NM3KPzWWushJRem-7" edge="1">
          <mxGeometry relative="1" as="geometry">
            <mxPoint x="429.66666666666674" y="520" as="targetPoint" />
          </mxGeometry>
        </mxCell>
        <mxCell id="noHD_NM3KPzWWushJRem-18" value="" style="edgeStyle=orthogonalEdgeStyle;rounded=0;orthogonalLoop=1;jettySize=auto;html=1;" parent="1" source="noHD_NM3KPzWWushJRem-7" target="noHD_NM3KPzWWushJRem-17" edge="1">
          <mxGeometry relative="1" as="geometry" />
        </mxCell>
        <mxCell id="noHD_NM3KPzWWushJRem-7" value="&lt;h2&gt;i&amp;lt;tongSV&lt;/h2&gt;" style="rhombus;whiteSpace=wrap;html=1;align=right;" parent="1" vertex="1">
          <mxGeometry x="380" y="460" width="100" height="90" as="geometry" />
        </mxCell>
        <mxCell id="noHD_NM3KPzWWushJRem-8" value="" style="endArrow=classic;html=1;rounded=0;exitX=0.5;exitY=1;exitDx=0;exitDy=0;entryX=0.5;entryY=0;entryDx=0;entryDy=0;" parent="1" source="noHD_NM3KPzWWushJRem-4" target="noHD_NM3KPzWWushJRem-7" edge="1">
          <mxGeometry width="50" height="50" relative="1" as="geometry">
            <mxPoint x="375" y="460" as="sourcePoint" />
            <mxPoint x="465" y="430" as="targetPoint" />
          </mxGeometry>
        </mxCell>
        <mxCell id="noHD_NM3KPzWWushJRem-10" value="" style="endArrow=classic;html=1;rounded=0;" parent="1" target="noHD_NM3KPzWWushJRem-11" edge="1">
          <mxGeometry width="50" height="50" relative="1" as="geometry">
            <mxPoint x="425" y="550" as="sourcePoint" />
            <mxPoint x="425" y="640" as="targetPoint" />
            <Array as="points">
              <mxPoint x="425" y="550" />
            </Array>
          </mxGeometry>
        </mxCell>
        <mxCell id="noHD_NM3KPzWWushJRem-14" value="" style="edgeStyle=orthogonalEdgeStyle;rounded=0;orthogonalLoop=1;jettySize=auto;html=1;" parent="1" source="noHD_NM3KPzWWushJRem-11" target="noHD_NM3KPzWWushJRem-13" edge="1">
          <mxGeometry relative="1" as="geometry" />
        </mxCell>
        <mxCell id="noHD_NM3KPzWWushJRem-24" value="" style="edgeStyle=orthogonalEdgeStyle;rounded=0;orthogonalLoop=1;jettySize=auto;html=1;" parent="1" source="noHD_NM3KPzWWushJRem-11" edge="1">
          <mxGeometry relative="1" as="geometry">
            <mxPoint x="550" y="640" as="targetPoint" />
            <Array as="points" />
          </mxGeometry>
        </mxCell>
        <mxCell id="noHD_NM3KPzWWushJRem-11" value="ds[i]masv==ma" style="rhombus;whiteSpace=wrap;html=1;" parent="1" vertex="1">
          <mxGeometry x="350" y="600" width="150" height="80" as="geometry" />
        </mxCell>
        <mxCell id="noHD_NM3KPzWWushJRem-16" value="" style="edgeStyle=orthogonalEdgeStyle;rounded=0;orthogonalLoop=1;jettySize=auto;html=1;entryX=0;entryY=0.5;entryDx=0;entryDy=0;" parent="1" source="noHD_NM3KPzWWushJRem-13" target="noHD_NM3KPzWWushJRem-7" edge="1">
          <mxGeometry relative="1" as="geometry">
            <mxPoint x="195" y="490" as="targetPoint" />
            <Array as="points">
              <mxPoint x="195" y="505" />
            </Array>
          </mxGeometry>
        </mxCell>
        <mxCell id="noHD_NM3KPzWWushJRem-13" value="&lt;h2&gt;i++&lt;/h2&gt;" style="whiteSpace=wrap;html=1;" parent="1" vertex="1">
          <mxGeometry x="135" y="610" width="120" height="60" as="geometry" />
        </mxCell>
        <mxCell id="noHD_NM3KPzWWushJRem-17" value="&lt;h2&gt;khong tim thay sv&lt;/h2&gt;" style="shape=document;whiteSpace=wrap;html=1;boundedLbl=1;" parent="1" vertex="1">
          <mxGeometry x="550" y="465" width="120" height="80" as="geometry" />
        </mxCell>
        <mxCell id="noHD_NM3KPzWWushJRem-19" value="" style="endArrow=classic;html=1;rounded=0;" parent="1" target="noHD_NM3KPzWWushJRem-20" edge="1">
          <mxGeometry width="50" height="50" relative="1" as="geometry">
            <mxPoint x="670" y="520" as="sourcePoint" />
            <mxPoint x="730" y="580" as="targetPoint" />
            <Array as="points">
              <mxPoint x="730" y="520" />
            </Array>
          </mxGeometry>
        </mxCell>
        <mxCell id="noHD_NM3KPzWWushJRem-20" value="" style="ellipse;whiteSpace=wrap;html=1;aspect=fixed;" parent="1" vertex="1">
          <mxGeometry x="690" y="540" width="80" height="80" as="geometry" />
        </mxCell>
        <mxCell id="noHD_NM3KPzWWushJRem-23" value="&lt;h2&gt;tim thay server&lt;/h2&gt;" style="shape=document;whiteSpace=wrap;html=1;boundedLbl=1;" parent="1" vertex="1">
          <mxGeometry x="550" y="600" width="120" height="80" as="geometry" />
        </mxCell>
        <mxCell id="noHD_NM3KPzWWushJRem-25" value="" style="endArrow=classic;html=1;rounded=0;exitX=1;exitY=0.5;exitDx=0;exitDy=0;entryX=0.5;entryY=1;entryDx=0;entryDy=0;" parent="1" source="noHD_NM3KPzWWushJRem-23" target="noHD_NM3KPzWWushJRem-20" edge="1">
          <mxGeometry width="50" height="50" relative="1" as="geometry">
            <mxPoint x="30" y="630" as="sourcePoint" />
            <mxPoint x="60" y="730" as="targetPoint" />
            <Array as="points">
              <mxPoint x="730" y="640" />
            </Array>
          </mxGeometry>
        </mxCell>
        <mxCell id="noHD_NM3KPzWWushJRem-26" value="" style="endArrow=classic;html=1;rounded=0;exitX=1;exitY=0.5;exitDx=0;exitDy=0;" parent="1" source="noHD_NM3KPzWWushJRem-20" target="noHD_NM3KPzWWushJRem-27" edge="1">
          <mxGeometry width="50" height="50" relative="1" as="geometry">
            <mxPoint x="580" y="550" as="sourcePoint" />
            <mxPoint x="840" y="580" as="targetPoint" />
            <Array as="points">
              <mxPoint x="810" y="580" />
            </Array>
          </mxGeometry>
        </mxCell>
        <mxCell id="noHD_NM3KPzWWushJRem-27" value="&lt;h2&gt;end&lt;/h2&gt;" style="ellipse;whiteSpace=wrap;html=1;" parent="1" vertex="1">
          <mxGeometry x="840" y="530" width="120" height="80" as="geometry" />
        </mxCell>
        <mxCell id="noHD_NM3KPzWWushJRem-28" value="&lt;h2&gt;false&lt;/h2&gt;" style="text;html=1;strokeColor=none;fillColor=none;align=center;verticalAlign=middle;whiteSpace=wrap;rounded=0;fontFamily=Times New Roman;" parent="1" vertex="1">
          <mxGeometry x="280" y="600" width="60" height="30" as="geometry" />
        </mxCell>
        <mxCell id="noHD_NM3KPzWWushJRem-29" value="&lt;h2&gt;true&lt;/h2&gt;" style="text;html=1;strokeColor=none;fillColor=none;align=center;verticalAlign=middle;whiteSpace=wrap;rounded=0;fontFamily=Times New Roman;" parent="1" vertex="1">
          <mxGeometry x="490" y="610" width="60" height="30" as="geometry" />
        </mxCell>
        <mxCell id="noHD_NM3KPzWWushJRem-31" value="&lt;h2&gt;false&lt;/h2&gt;" style="text;html=1;strokeColor=none;fillColor=none;align=center;verticalAlign=middle;whiteSpace=wrap;rounded=0;fontFamily=Times New Roman;" parent="1" vertex="1">
          <mxGeometry x="480" y="470" width="60" height="30" as="geometry" />
        </mxCell>
      </root>
    </mxGraphModel>
  </diagram>
</mxfile>
